<svg version="1.2" xmlns="http://www.w3.org/2000/svg" viewBox="0 0 150 150" width="150" height="150">
	<title>moonrise-svg</title>
	<style>
		.s0 { fill: #ffffff;stroke: #000000;stroke-width: 2 } 
		.s1 { fill: #000000 } 
	</style>
	<path id="Layer copy" class="s0" d="m75 26.7c26.6 0 48.2 21.6 48.2 48.2-0.1 26.6-21.6 48.1-48.2 48.1-26.5 0-48.1-21.5-48.2-48.1-0.1-26.4 21.6-48.1 48.2-48.2z"/>
	<path id="Layer" fill-rule="evenodd" class="s1" d="m284 28.7c26.6 0 48.2 21.6 48.2 48.2-0.1 26.6-21.6 48.1-48.2 48.1-26.5 0-48.1-21.5-48.2-48.1-0.1-26.4 21.6-48.1 48.2-48.2zm113.9 94.7c-5 4.6-47.9 2.8-56.9-35.9-7.7-33.2 21.3-64 55.2-58 4.1 0.7 11.5 10.8 14.3 15.9 13.2 24.7 7.8 59.4-12.6 78zm72.5 1.4c-34.7 2.1-62.2-40.4-40.1-74.3 10.7-16.6 28.7-22.3 40.1-21.6 0 32 0 64 0 95.9zm58.6-95.9c-35.2 24-28.4 78.9-3.1 94.6 5.5 3.4-10.8 0.4-19-4-45.9-24.9-25-92.4 22.1-90.6z"/>
</svg>